<?xml version="1.0" encoding="UTF-8"?>
<svg width='32px' data-bbox="-0.003 0 148.972 162.59" viewBox="0 0 148.97 162.59" xmlns="http://www.w3.org/2000/svg" data-type="color">
    <g>
        <path d="M148.78 3.45l-.48-1.11a4.62 4.62 0 0 0-1.68-1.69 4.85 4.85 0 0 0-2.4-.65 4.07 4.07 0 0 0-1.22.18 6 6 0 0 0-1.55.7 10.6 10.6 0 0 0-1.27 1 11.75 11.75 0 0 0-1.14 1.41l-.59.81c-.42.6-.79 1.22-1.17 1.83-.23.39-.47.77-.7 1.15l-.49.32c-.38.24-.81.43-1.21.64-.76.4-1.51.81-2.3 1.17l-2.87 1.32c-1.59.65-3.18 1.3-4.79 1.89-2 .74-4 1.46-6 2.14s-4 1.31-6 1.94-3.92 1.16-5.92 1.71-3.89 1-5.84 1.53-3.91.92-5.86 1.36c-1.8.41-3.61.78-5.41 1.17s-3.61.77-5.43 1.1-3.74.7-5.62 1l-1 .11c-.14-.28-.29-.54-.45-.8a15.89 15.89 0 0 0-1.33-1.73 8.53 8.53 0 0 0-1.94-1.65 8 8 0 0 0-1.11-.53c-.42-.17-.84-.37-1.27-.53s-.94-.35-1.42-.5a14.07 14.07 0 0 0-2.15-.41 5.51 5.51 0 0 0-2.35.23A4.77 4.77 0 0 0 64 19.6a6.74 6.74 0 0 0-1.18 1.48 8.25 8.25 0 0 0-.64 1.5 6.79 6.79 0 0 0-.28 1.65 6.62 6.62 0 0 0 .27 2.34 7.89 7.89 0 0 0 1.63 2.89 6.12 6.12 0 0 0 2 1.49 12.87 12.87 0 0 0 2.42.85 21.58 21.58 0 0 0 2.66.39l.56.05-.13.23c-.42.7-.88 1.37-1.37 2-2 2.45-4.2 4.64-6.25 7-.56.64-1.17 1.23-1.74 1.85s-1.06 1.22-1.63 1.79c-.79.81-1.57 1.65-2.33 2.5-.19.21-.41.41-.61.62-.47.47-.92.94-1.38 1.42-1.28 1.35-2.6 2.67-4 3.91a22.69 22.69 0 0 0 3-.68l1.69-.55c.39-.14.77-.32 1.15-.48a27.48 27.48 0 0 0 2.64-1.22c1.05-.59 2.08-1.21 3.1-1.85.21-.14.4-.29.6-.44.71-.53 1.42-1.08 2.12-1.63s1.26-1 1.86-1.58a76.6 76.6 0 0 0 2.39-2.38 32.29 32.29 0 0 0 2.8-3.39 38.3 38.3 0 0 0 2.35-3.6A37 37 0 0 0 77.48 32l.06-.14a47.86 47.86 0 0 0 5.2-1.05l3.66-1c1.75-.46 3.49-1 5.22-1.46s3.6-1 5.4-1.55 3.88-1.13 5.81-1.73 3.84-1.21 5.76-1.85 3.91-1.29 5.85-2 4-1.44 5.92-2.19 4-1.52 5.92-2.3l2.11-.86c1.15-.47 2.31-.91 3.44-1.42l.79-.36c-.37.68-.75 1.35-1.1 2l-1.6 3.17c-.33.65-.61 1.31-.89 2l-1.56 3.61c-1 2.2-1.68 4.48-2.48 6.73-.21.6-.38 1.22-.55 1.83-.36 1.32-.73 2.63-1.1 3.95-.53 1.92-.92 3.88-1.36 5.82s-.87 3.77-1.31 5.66l-.48 2.14c-.13.55-.31 1.1-.46 1.64-.49 1.75-1 3.5-1.48 5.25-.15.52-.35 1-.53 1.55l-1.11 3.27c-.27.78-.54 1.56-.8 2.34-.2.59-.44 1.16-.66 1.74-.33.86-.67 1.71-1 2.56a14.42 14.42 0 0 0-1.95-.66 18.88 18.88 0 0 0-2.8-.4 29.78 29.78 0 0 0-4.43 0c-2.63.14-5.24.53-7.85.85-2.36.29-4.69.82-7 1.28-1.92.37-3.8.89-5.7 1.37s-3.82 1.07-5.72 1.63c-.62.19-1.23.41-1.84.62l-3.94 1.34c-1.74.6-3.44 1.32-5.15 2l-3.16 1.25c-1 .37-1.87.8-2.79 1.23l-3.71 1.7c-.64.3-1.26.63-1.89 1L53.28 84c-.87.46-1.72 1-2.57 1.49L48 87.07c-.78.45-1.52 1-2.28 1.47l-3 1.95c-.67.43-1.28 1-1.91 1.42l-2.63 2c-.91.68-1.77 1.42-2.65 2.15l-3.33 2.69c-1 .87-2.06 1.77-3.06 2.69a117.47 117.47 0 0 0-11.84 12.39 112.27 112.27 0 0 0-10.47 14.79 66.81 66.81 0 0 0-4.09 8.48c-.51 1.27-1 2.56-1.36 3.87a28 28 0 0 0-1 4.35 26.27 26.27 0 0 0-.38 4.85A22.79 22.79 0 0 0 .36 153a10 10 0 0 0 .64 2.09 15.27 15.27 0 0 0 1.21 2.47 10.77 10.77 0 0 0 6.92 4.72 17.5 17.5 0 0 0 2.89.31 17.68 17.68 0 0 0 2.06-.15 38.11 38.11 0 0 0 3.83-.6l3.57-.76c.83-.18 1.66-.44 2.48-.67l1.94-.53.91-.25 3-1c.89-.29 1.81-.55 2.69-.88l6-2.31c1-.39 2.06-.87 3.08-1.31l3.75-1.62c1.77-.76 3.5-1.59 5.24-2.39.68-.32 1.37-.61 2-.94l2.83-1.44 3.42-1.74c1.86-.94 3.66-2 5.44-3.14a98.74 98.74 0 0 0 10.3-7.41l5.44-4.37c.53-.43 1-.94 1.49-1.4l3.14-3 1.93-1.81c.47-.44.89-1 1.32-1.44l5-5.41c.33-.36.63-.75.94-1.12l2.62-3.14c1.35-1.61 2.73-3.2 4-4.88l4.54-6 1.54-2c.35-.46.66-1 1-1.45l4.39-6.43.43-.64.12.09a1.24 1.24 0 0 1 .27-.52 35.26 35.26 0 0 0 2.76-3.93c.54-1.05 1.05-2.12 1.51-3.23a15.7 15.7 0 0 1 1.38-2.43 7.17 7.17 0 0 1 .83-1.44 1.16 1.16 0 0 1 .3-.74v-.26c1.17-2.34 2.24-4.73 3.26-7.15.77-1.82 1.53-3.65 2.17-5.52l2.31-6.76c.21-.63.36-1.28.54-1.92l1.13-4c.52-1.83.91-3.7 1.34-5.55s.86-3.72 1.28-5.58c.22-.93.43-1.87.64-2.81.06-.27.15-.54.23-.8.18-.68.37-1.35.56-2 .37-1.33.71-2.67 1.17-4L135.9 29l.71-1.64.78-1.81c.12-.28.22-.57.36-.84.93-1.85 1.86-3.69 2.84-5.52.85-1.57 1.7-3.14 2.59-4.69.51-.89 1-1.78 1.52-2.65s1.08-1.78 1.65-2.65l.59-.45a5.49 5.49 0 0 0 1.32-1.48A5.48 5.48 0 0 0 148.8 6a4.64 4.64 0 0 0-.02-2.55zm-42.49 80.82c-.84 1.34-1.69 2.68-2.58 4l-2.08 3-2.36 3.46c-.31.46-.6.93-.93 1.36-1.43 1.88-2.85 3.77-4.27 5.65-.46.61-.92 1.23-1.39 1.84l-4 4.76c-1 1.19-2 2.41-3 3.56l-5.27 5.72c-1.13 1.22-2.4 2.33-3.61 3.47-1.43 1.33-2.81 2.72-4.32 4l-5.58 4.53c-2 1.53-4.09 3-6.22 4.39-1.18.76-2.37 1.48-3.58 2.19-.93.54-1.86 1.1-2.82 1.58L48 140.93c-.54.28-1.09.52-1.65.77l-3.84 1.77c-1.68.78-3.39 1.51-5.1 2.24l-1.63.7-5.56 2.13c-.54.21-1.1.38-1.66.56l-3.72 1.22c-1.76.58-3.56 1-5.34 1.5-.73.2-1.48.34-2.23.5-1.18.25-2.36.51-3.55.7a14.69 14.69 0 0 1-2.48.08l-.51-.12-.34-.21-.2-.2a6 6 0 0 1-.37-.65 10.61 10.61 0 0 1-.36-1.34 18.62 18.62 0 0 1 .07-3.34 30.15 30.15 0 0 1 1-4.09c.42-1.35.89-2.68 1.42-4a66.38 66.38 0 0 1 4.69-8.76c1.82-2.9 3.79-5.72 5.87-8.44s4.34-5.31 6.68-7.83c2.57-2.76 5.31-5.36 8.11-7.88 1-.94 2.12-1.81 3.18-2.71l2.93-2.48 1.7-1.29 1.47-1.12c.17-.13.34-.27.52-.39l5.35-3.47c.83-.54 1.72-1 2.57-1.5l2.71-1.58c.89-.52 1.83-1 2.75-1.47.64-.34 1.27-.69 1.93-1L67.38 87l5.67-2.25c1.7-.68 3.45-1.25 5.19-1.86.78-.27 1.55-.57 2.35-.81L84 81c2-.59 3.93-1.07 5.91-1.58.85-.22 1.69-.42 2.55-.6l4.88-1c.91-.18 1.82-.29 2.74-.41l3-.4a37.89 37.89 0 0 1 7-.25l.53.11c-1.41 2.54-2.83 5-4.32 7.4z" fill="#ffffff" data-color="1"/>
    </g>
</svg>
