<?xml version="1.0" encoding="UTF-8"?>
<svg data-bbox="0.024 0 1759.977 653.3" viewBox="0 0 1760 653.31" xmlns="http://www.w3.org/2000/svg" data-type="shape">
    <g>
        <g>
            <path d="M1081.19 392.83l4.16-1.21-.67-.73-3.49 1.94z"/>
            <path d="M574.62.72a25.1 25.1 0 0 0-6.22 2.81 46.53 46.53 0 0 0-5.12 4.05 45.75 45.75 0 0 0-4.56 5.68c-.81 1.08-1.61 2.16-2.38 3.27-1.67 2.38-3.17 4.87-4.69 7.35-.95 1.54-1.88 3.08-2.81 4.63l-2 1.26c-1.53 1-3.25 1.71-4.85 2.56-3.06 1.61-6.1 3.26-9.24 4.7l-11.56 5.34C514.83 45 508.45 47.57 502 50c-8 2.95-16 5.86-24.11 8.59s-16 5.27-24.06 7.78C445.94 68.79 438 71 430 73.17c-7.79 2.16-15.62 4.14-23.45 6.16S390.89 83 383 84.78c-7.22 1.63-14.48 3.13-21.72 4.68s-14.52 3.13-21.82 4.45c-7.52 1.37-15 2.79-22.57 3.89-1.29.15-2.58.3-3.88.43a36.38 36.38 0 0 0-1.81-3.18 62.35 62.35 0 0 0-5.35-7 33.61 33.61 0 0 0-7.79-6.61 29.36 29.36 0 0 0-4.46-2.12c-1.7-.72-3.39-1.49-5.1-2.15-1.88-.73-3.76-1.41-5.69-2a53.39 53.39 0 0 0-8.66-1.65 21.84 21.84 0 0 0-9.43.9 19.62 19.62 0 0 0-7.57 4.33 26.56 26.56 0 0 0-4.72 5.93 36 36 0 0 0-2.6 6 26.91 26.91 0 0 0-1.1 6.63 26 26 0 0 0 1.09 9.4 30.77 30.77 0 0 0 6.56 11.62 24.48 24.48 0 0 0 7.89 6 53.73 53.73 0 0 0 9.72 3.43 85.63 85.63 0 0 0 10.68 1.56c.76.09 1.51.15 2.27.2l-.54.94a92.39 92.39 0 0 1-5.47 8.13c-7.86 9.84-16.91 18.65-25.14 28.17-2.23 2.58-4.69 4.95-7 7.46s-4.27 4.87-6.53 7.18q-4.8 4.91-9.38 10c-.77.87-1.63 1.66-2.45 2.49-1.87 1.88-3.71 3.8-5.52 5.74-5.07 5.4-10.39 10.56-15.89 15.53a92.84 92.84 0 0 0 11.98-2.64q3.4-1.08 6.77-2.24c1.58-.54 3.11-1.26 4.64-1.92a108 108 0 0 0 10.6-4.88q6.32-3.57 12.45-7.45c.84-.53 1.63-1.17 2.43-1.76 2.86-2.14 5.68-4.33 8.49-6.53 2.59-2.05 5.1-4.09 7.49-6.36q4.91-4.66 9.62-9.55a130 130 0 0 0 11.24-13.65 150.63 150.63 0 0 0 9.42-14.47 140.94 140.94 0 0 0 7.21-15.09l.24-.58a186.75 186.75 0 0 0 20.9-4.21l14.7-3.85c7-1.84 14-3.86 21-5.86 7.24-2.07 14.47-4.12 21.69-6.24 7.79-2.29 15.59-4.52 23.33-7s15.46-4.87 23.15-7.41c7.87-2.61 15.73-5.21 23.52-8q11.91-4.33 23.78-8.81c8-3 15.88-6.13 23.8-9.26 2.83-1.12 5.65-2.27 8.47-3.43 4.6-1.9 9.29-3.67 13.82-5.72l3.16-1.43c-1.49 2.71-3 5.42-4.39 8.18L522 77.77c-1.31 2.59-2.43 5.23-3.58 7.89q-3.13 7.26-6.26 14.51c-3.8 8.83-6.76 18-10 27.05-.85 2.42-1.5 4.88-2.19 7.35q-2.2 7.94-4.42 15.87c-2.15 7.7-3.7 15.58-5.47 23.37-1.73 7.59-3.51 15.17-5.27 22.74-.64 2.77-1.29 5.53-1.93 8.29-.51 2.22-1.24 4.41-1.85 6.59l-5.94 21.09c-.59 2.1-1.42 4.16-2.12 6.23q-2.25 6.58-4.49 13.16l-3.21 9.4c-.8 2.35-1.74 4.66-2.64 7q-2 5.18-4.11 10.29a58 58 0 0 0-7.82-2.64 74.72 74.72 0 0 0-11.25-1.61 120.44 120.44 0 0 0-17.82-.13c-10.56.56-21.05 2.14-31.54 3.42-9.49 1.15-18.85 3.3-28.22 5.14-7.71 1.5-15.3 3.59-22.91 5.5s-15.36 4.31-23 6.57c-2.5.74-4.94 1.61-7.4 2.46l-15.76 5.39c-7 2.41-13.83 5.27-20.71 8l-12.7 5c-3.79 1.51-7.49 3.24-11.2 4.94l-14.91 6.85c-2.58 1.18-5.06 2.52-7.57 3.85l-11.64 6.19c-3.5 1.86-6.89 4-10.32 6l-10.91 6.33c-3.13 1.82-6.12 3.93-9.16 5.89l-12.24 7.86c-2.67 1.71-5.13 3.78-7.67 5.68l-10.55 7.89c-3.66 2.75-7.13 5.72-10.64 8.64l-13.19 11c-4.2 3.5-8.27 7.11-12.31 10.78a476.18 476.18 0 0 0-47.58 49.76c-15.42 18.71-29.85 38.49-42.07 59.45A266.85 266.85 0 0 0 11 550.88c-2.07 5.09-3.83 10.3-5.47 15.54a116.57 116.57 0 0 0-4.1 17.49A105.18 105.18 0 0 0 .05 603.4a92.24 92.24 0 0 0 1.39 11.48A38.43 38.43 0 0 0 4 623.14a60 60 0 0 0 4.85 9.93 43.12 43.12 0 0 0 27.81 19 73.86 73.86 0 0 0 11.54 1.23 66.09 66.09 0 0 0 8.31-.61 151.45 151.45 0 0 0 15.39-2.41l14.33-3c3.35-.71 6.65-1.79 10-2.7l7.79-2.14c1.22-.33 2.47-.61 3.67-1l12.1-4c3.58-1.17 7.26-2.19 10.78-3.54l24.17-9.25c4.17-1.6 8.27-3.52 12.37-5.29l15.08-6.51c7.08-3.05 14-6.38 21-9.61 2.72-1.25 5.5-2.43 8.18-3.78l11.38-5.76 13.56-6.87c7.5-3.79 14.74-8.21 21.88-12.63a397.93 397.93 0 0 0 41.38-29.76l21.8-17.73c2.1-1.72 4-3.75 6-5.61L340 509.19q3.87-3.62 7.72-7.25c1.9-1.78 3.58-3.87 5.34-5.78l20.06-21.77c1.33-1.44 2.54-3 3.79-4.49l10.52-12.6c5.42-6.49 11-12.87 16.07-19.62l18.27-24.2 6.17-8.18c1.41-1.87 2.66-3.88 4-5.82l17.75-26c.58-.85 1.15-1.71 1.72-2.56 1.11.91 2.35 1.7 3.48 2.57a15.59 15.59 0 0 0 3.27 1.69 56.6 56.6 0 0 0 6 2.3 24.77 24.77 0 0 0 3.71.71 59.23 59.23 0 0 0 11.43.71c12.91-.64 25.21-5.4 36.77-10.87 5.84-2.77 11.49-5.86 17.1-9.06l7-4c1-.59 2.1-1.15 3.1-1.8l6-4c1.31-.86 2.67-1.69 3.93-2.64 4-3 8-5.95 11.84-9.07s7.64-6.13 11.27-9.41c.82-.75 1.67-1.49 2.5-2.25a39.34 39.34 0 0 0 5.3.37 30.23 30.23 0 0 0 7-.91c1.21-.28 2.37-.69 3.57-1a18.93 18.93 0 0 1 2.13 0 25.32 25.32 0 0 1 4 1.18 26.6 26.6 0 0 0 6.75 2.22c5.28.79 10.57-.48 15.69-1.68q2.91-.69 5.79-1.48l1.47-.41a8.64 8.64 0 0 0 4 3.72 14.56 14.56 0 0 0 7.83 1.06 43.62 43.62 0 0 0 9.87-2.39c7-2.44 13.68-5.59 20.45-8.53 3-1.28 5.93-2.6 8.88-3.91-.12.18-.24.37-.35.56a11.36 11.36 0 0 0-1.38 5.16c-.21 2.39 1.34 4.22 2.72 5.92s4 2.44 6 2.6a16.78 16.78 0 0 0 5.58-.7 47.87 47.87 0 0 0 9.86-4.35c2-1.09 4-2.31 6-3.54 4.4-2.74 8.69-5.66 12.9-8.7 1.36-1 2.69-2 4-3.1a27.72 27.72 0 0 0 6.77-2.41c2.53-1.18 4.94-2.58 7.44-3.8l.3-.09a12.72 12.72 0 0 1 1.13 1.29c.5.64 1 1.27 1.58 1.87a8.06 8.06 0 0 0 4.86 2.49 6.07 6.07 0 0 1-1.58-1l.06.05a7.5 7.5 0 0 1-1.21-1.31l.09.13a20.28 20.28 0 0 1-1.16-2.15 16.46 16.46 0 0 0-1.58-3.5c-1.06-1.56-2.9-1.33-4.51-1-2.5.5-5 1.07-7.47 1.49-.66.08-1.33.15-2 .21a5 5 0 0 0-5.14-2.72c-2.67.33-5.24 1.77-5.87 4.57 0 .13-.06.26-.08.4-2.21 1.11-4.51 2.06-6.75 3.07-2.74 1.25-5.5 2.45-8.27 3.64.21-.31.41-.63.61-.95a27.38 27.38 0 0 0 2.05-4.35 10.93 10.93 0 0 0 .86-4.27 7.79 7.79 0 0 0-8.52-7.41 24.25 24.25 0 0 0-6.76 2c-1.68.68-3.33 1.42-5 2.14-5 2.17-9.91 4.58-14.86 6.87-6.32 2.91-12.66 5.8-19.05 8.54a71.1 71.1 0 0 1-11.06 3.7 6.05 6.05 0 0 0-.49-1 7.09 7.09 0 0 0-6-3.45c-2.71 0-5.1 1-7.59 1.93a88.66 88.66 0 0 1-14.58 4 24.06 24.06 0 0 1-4.09.13 21 21 0 0 1-2.37-.73 42.27 42.27 0 0 0-6.42-2.46c-1.93-.53-4-.57-5.88-1.2-2.47-1.13-5-2.21-7.39-3.48A12.18 12.18 0 0 0 584 304a10.92 10.92 0 0 0-13.22-1.7l-.44.27c-1.1.68-2.13 1.54-3.18 2.26S565 306.25 564 307q-4.19 2.78-8.35 5.6c-5.2 3.52-10.4 7-15.65 10.48-2.4 1.59-5 2.94-7.45 4.38-2.12 1.23-4.23 2.41-6.39 3.54-8.46 4.4-16.87 8.89-25.6 12.75a95.34 95.34 0 0 1-18.56 5.51 49.44 49.44 0 0 1-8 .11l-.72-.16c.55-2.71 1.23-5.41 2-8s1.54-5.26 2.34-7.89a91.28 91.28 0 0 0 2.77-12.07c4.71-9.42 9-19 13.12-28.72 3.08-7.3 6.15-14.66 8.71-22.17l9.27-27.2c.85-2.51 1.47-5.12 2.19-7.68l4.55-16.17c2.07-7.36 3.65-14.84 5.38-22.29s3.39-15.02 5.13-22.46q1.29-5.64 2.57-11.29c.25-1.09.61-2.17.91-3.25l2.25-8.09c1.49-5.36 2.84-10.75 4.7-16q3.44-9.76 6.89-19.51l2.83-6.57c1-2.43 2.1-4.86 3.14-7.3.48-1.11.9-2.27 1.45-3.35 3.76-7.41 7.52-14.83 11.42-22.2 3.4-6.33 6.84-12.63 10.42-18.87 2-3.55 4-7.16 6.11-10.64s4.32-7.16 6.63-10.64c.79-.6 1.57-1.21 2.35-1.82a21.51 21.51 0 0 0 5.29-5.95 20.17 20.17 0 0 0 2.19-5c.82-3 1-7.29-.1-10.26l-1.89-4.5a19 19 0 0 0-6.76-6.76A19.56 19.56 0 0 0 579.47 0a16.09 16.09 0 0 0-4.85.72zM277.86 101.07zm446.63 198.64l.86.36c-.3-.11-.58-.23-.87-.37zm-282.55 8.89c.71.13 1.42.27 2.12.43q-7.94 15.09-17 29.56c-3.37 5.4-6.75 10.8-10.34 16.05l-8.35 12.23-9.51 13.94c-1.24 1.81-2.42 3.7-3.74 5.46L378 409l-5.58 7.39-16 19.11c-4 4.81-7.93 9.7-12.17 14.3q-10.59 11.5-21.19 23c-4.55 4.93-9.63 9.36-14.52 13.94-5.71 5.38-11.27 10.93-17.35 15.88l-22.4 18.21c-8.15 6.14-16.45 12.07-25 17.63-4.71 3.05-9.53 6-14.38 8.79-3.73 2.18-7.47 4.43-11.33 6.38L193 566.28c-2.17 1.1-4.41 2.07-6.62 3.09L171 576.48c-6.79 3.12-13.66 6-20.51 9l-6.55 2.82-22.35 8.55c-2.18.84-4.43 1.52-6.65 2.25l-15 4.91c-7 2.31-14.29 4-21.44 6-3 .81-6 1.38-9 2-4.74 1-9.47 2-14.25 2.83a61.64 61.64 0 0 1-10 .31c-.69-.15-1.36-.31-2-.51-.46-.26-.92-.53-1.37-.81l-.83-.83c-.53-.85-1-1.72-1.48-2.6a44 44 0 0 1-1.44-5.4 77.37 77.37 0 0 1 .27-13.44 129.81 129.81 0 0 1 4.07-16.44q2.52-8.13 5.71-16A267.38 267.38 0 0 1 67 523.94c7.33-11.65 15.22-23 23.57-33.91s17.45-21.34 26.85-31.44c10.34-11.09 21.34-21.53 32.59-31.69 4.14-3.74 8.51-7.26 12.78-10.87l11.78-10 6.83-5.2 5.9-4.49c.69-.53 1.37-1.09 2.1-1.56l21.5-14c3.32-2.15 6.88-4 10.3-6l10.89-6.35c3.6-2.1 7.38-3.94 11.06-5.9 2.58-1.37 5.12-2.79 7.78-4l19.79-9.1 22.76-9.06c6.87-2.73 13.88-5 20.86-7.46 3.14-1.08 6.26-2.3 9.44-3.26l13.51-4.06c7.86-2.36 15.8-4.32 23.75-6.35 3.42-.88 6.8-1.71 10.26-2.42l19.58-4c3.65-.74 7.33-1.17 11-1.67l12-1.6c9.29-.95 18.73-1.77 28.06-1zm30.44 42zm.48 1.84l.09.21-.09-.19z"/>
            <path d="M817.9 6.35c-3.09.08-6.17 1.13-9.11 2a68.44 68.44 0 0 0-14 5.74 62.06 62.06 0 0 0-9.06 6 44.78 44.78 0 0 0-7.59 8.72c2.27-1.17 4.54-2.39 6.89-3.41a70.63 70.63 0 0 1 10.4-2.7c2-.42 4.06-.84 6.1-1.17 2.81-.32 5.62-.39 8.45-.48a54 54 0 0 1 5.83.07c.48.11 1 .25 1.43.4.3.31.6.63.88 1a25.69 25.69 0 0 1 1.6 2.48 57.35 57.35 0 0 1 2.39 10 79.48 79.48 0 0 1-.34 16.17c-.73 4.59-1.72 9.13-2.66 13.68-.56 2.71-1.12 5.43-1.79 8.12q-2.43 9.87-5 19.71c-3.42 13.22-7.08 26.34-10.91 39.45-2.2 7.51-4.61 15-7.17 22.35-1.27 3.66-2.47 7.34-3.87 10.95l-4.9 12.69q-7.29 16.85-14.76 33.6c-5.46 12.3-11 24.56-16.27 36.92-5 11.7-9.88 23.46-15.05 35.08-5.54 12.46-11.31 24.8-16.9 37.24-5.2 11.59-10.07 23.34-15.32 34.91-5.51 12.12-11.06 24.23-17 36.12-3.08 6.12-6.2 12.18-9.47 18.2s-6.7 12.06-10.09 18.08c-3.15 5.59-6.35 11.16-9.52 16.73-3 5.27-6 10.56-9.12 15.75s-6.35 10.68-9.65 15.93l-11 17.51c-7.06 11.24-14 22.55-20.47 34.12s-12.77 23.02-18.91 34.69c-3.08 5.84-6.08 11.71-8.89 17.69a103.28 103.28 0 0 0-6.95 17.93 40.74 40.74 0 0 0-1.44 13.26c1.41-2.32 2.67-4.71 4.14-7s3-4.53 4.49-6.79c.65-.83 1.29-1.66 1.92-2.5 8.39-10 17.17-19.77 25.08-30.18q3.3-4.33 6.49-8.76c1.78-2.48 3.33-5.18 4.93-7.78 3.28-5.31 6.21-10.87 9.11-16.38 1.8-3.43 3.53-6.89 5.29-10.34 1.45-2.86 3.08-5.63 4.63-8.43 2.89-5.26 6-10.43 9.07-15.56 6.68-11 13.36-22 19.75-33.25q10.33-18.13 20.49-36.36c3.19-5.73 6.26-11.51 9.34-17.29 1.57-2.94 2.93-6 4.39-9 1.25-2.58 2.45-5.18 3.66-7.78 5.42-11.57 10.77-23.2 15.79-35q8.19-19.2 16.75-38.21c2.63-5.85 5.43-11.62 8.15-17.42s5.28-11.62 7.92-17.43c2.53-5.56 4.87-11.21 7.36-16.79q4.2-9.44 8.43-18.86c5.16-11.5 10.58-22.89 15.85-34.35 5.89-12.82 11.88-25.6 17.16-38.68 1.27-3.15 2.65-6.27 3.81-9.45 1.28-3.55 2.58-7.09 3.87-10.64 2.25-6.21 4.29-12.49 6.38-18.76 4.11-12.37 7.8-24.89 11.39-37.42s7.26-25.13 10.43-37.83a71.67 71.67 0 0 0 2.14-24.78 69.65 69.65 0 0 0-1.2-7.59 47.94 47.94 0 0 0-2-6.05 67.78 67.78 0 0 0-3-6.95 23.84 23.84 0 0 0-5.22-6.6 20.23 20.23 0 0 0-5.7-3.91 15 15 0 0 0-5-1.32 20.1 20.1 0 0 0-2.44-.15zm-.21 15.39a6.8 6.8 0 0 1 .68.52l-.68-.52z"/>
            <path d="M917.41 24.65a114 114 0 0 0-20.93 3.46 169.79 169.79 0 0 0-19 6.42c-3.75 1.54-7.63 3-11.25 4.84a99.12 99.12 0 0 0-8.78 4.77 92.08 92.08 0 0 0-10 7.32c-3.56 3.09-6.93 6.34-10.22 9.72 6-1.61 12-3.23 18.09-4.74 2.66-.67 5.35-1.19 8-1.81 1.46-.33 3-.47 4.47-.72s2.95-.5 4.42-.77c11.89-1.6 23.73-3.62 35.58-5.48 7.38-.48 14.77-1.08 22.17-1.25 4.27-.09 8.49-.09 12.76 0 3.52.07 7 .39 10.54.68l3.57.57c2 .31 3.94.94 5.88 1.41 1.63.4 3.22.94 4.82 1.44 2.56.79 5.07 1.64 7.56 2.61a53 53 0 0 1 8.19 4.59 35.34 35.34 0 0 1 3.72 3.64 40.7 40.7 0 0 1 3.26 5.75A71.57 71.57 0 0 1 994 80.8a65.72 65.72 0 0 1-.07 13.08 78.92 78.92 0 0 1-4.67 16.56 134.31 134.31 0 0 1-8.52 16.25c-1.28 2.08-2.5 4.19-3.93 6.17l-4.35 6c-5.39 6.47-10.83 12.9-16.84 18.82l-6.6 6.5c-1.11 1.1-2.17 2.26-3.36 3.27l-11.52 9.81c-4.28 3.28-8.53 6.64-13 9.65l-10.83 7.31c-2.39 1.61-4.92 3-7.37 4.51-2.68 1.63-5.33 3.35-8.06 4.88l-10.82 6.07c-5.66 3.16-11.42 6.12-17.17 9.13-4.29 2.25-8.74 4.23-13.09 6.34-4.2 2-8.5 3.87-12.75 5.79q-17 7.11-34.08 13.9c-12.52 5-25 10.13-37.37 15.36q-7.71 3.24-15.42 6.43c-4.44 1.82-8.88 3.71-13.42 5.28-4.83 1.67-9.64 3.38-14.59 4.7-2.23.6-4.46 1.2-6.72 1.73-.28.05-.57.12-.86.2l-.56.12c-1.67.38-3.36.66-5.06.91l-2.67.3a15.06 15.06 0 0 0-10-.52c-.69.23-1.36.47-2 .74a22.26 22.26 0 0 0-5 2.34l-3.12 2.41a34.2 34.2 0 0 0-2.65 3.47 15.34 15.34 0 0 0-2.09 7.74c.18 1.36.36 2.72.55 4.08a15.37 15.37 0 0 0 3.94 6.77c3.8 4.52 9.91 4.89 15.33 5.24a39.79 39.79 0 0 0 4.5-.07c4.63-.25 9.22-1 13.8-1.7 6.36-.92 12.75-1.78 19.07-2.89 12.73-2.23 25.47-4.41 38.19-6.64q17.49-3 35-5.81c8.9-1.39 17.82-2.6 26.75-3.82l13.8-1.29c3.36-.32 6.71-.66 10.08-.82l15.89-.71a181.07 181.07 0 0 1 30.66 1.73l15.05 2.44c5 .82 10.07 2 15 3.35a158.33 158.33 0 0 1 18.95 6.33 128.4 128.4 0 0 1 24.86 14.05 90.74 90.74 0 0 1 13.14 13.15 72.27 72.27 0 0 1 7.27 12.31 66.31 66.31 0 0 1 3.46 12.51 63.27 63.27 0 0 1 0 12.76 101 101 0 0 1-6.08 21.05 171.87 171.87 0 0 1-20.52 34 281.07 281.07 0 0 1-47.61 46.79c-4.33 3.31-8.7 6.59-13.25 9.59l-11.13 7.33-9.41 6.22c-1.66 1.1-3.44 2-5.17 3l-20.6 12c-2 1.17-4.08 2.24-6.12 3.35l-12.84 7q-7.05 3.85-14.15 7.6l-13 6.85c-2.23 1.17-4.43 2.4-6.69 3.51l-20.87 10.31c-2.08 1-4.14 2.17-6.28 3.1l-8.22 3.54-17.41 7.52L751 567.6l-8.63 3.26c-1.92.73-3.93 1.28-5.89 1.91L712 580.63c-5.8 1.87-11.74 3.37-17.61 5-5.6 1.6-11.19 3.32-16.84 4.75l-25.25 6.36c-13.07 3.29-26.26 6.08-39.4 9-4.55 1-9.19 1.72-13.77 2.55l-17.86 3.25-19.07 2.33c-2.31.28-4.66.72-7 .84l-9.49.5-14.32.76c-1.8.09-3.6.22-5.4.23l-24.27.13c-4.15 0-8.32-.25-12.46-.48-5.44-.29-10.86-.81-16.27-1.48a124.73 124.73 0 0 1-26.8-6.67 66.9 66.9 0 0 1-10.83-6 50.63 50.63 0 0 1-5.4-5.26 45.43 45.43 0 0 1-2.82-4.93 41 41 0 0 1-1.47-5.34 55.34 55.34 0 0 1 .09-9 67.65 67.65 0 0 1 3.66-12.71 138.28 138.28 0 0 1 15.59-26c16.06-20.28 35.41-37.77 55.77-53.65a605.64 605.64 0 0 1 60-40.26 565.07 565.07 0 0 1 65.72-33.33 404.59 404.59 0 0 1 45.08-16.05 350.9 350.9 0 0 1 46.19-9.69 294.71 294.71 0 0 1 35-2.59 256.24 256.24 0 0 1 34.46 2.27c7.63 1.09 15.18 2.5 22.75 3.88 1.81.33 3.64.58 5.42 1l10.39 2.62c2.19.55 4.46 1 6.61 1.68l10 3.27c5.31 1.73 10.58 3.67 15.77 5.75a55.17 55.17 0 0 1 9.1 5.39c1.9 1.56 3.77 3.15 5.64 4.76a65.67 65.67 0 0 0 7.79 6 35.4 35.4 0 0 0 6.19 2.78 27.68 27.68 0 0 0 6 1.53 54.85 54.85 0 0 0 13 .4 94.71 94.71 0 0 0 13.8-2.24c4.68-1.12 9.3-2.53 13.87-4.05 5.93-2 11.84-4.06 17.72-6.22 5.72-2.1 11.46-4.21 17-6.7-7.9.57-15.86.59-23.77.83-13.2.39-26.51 1.64-39.68.14a43.89 43.89 0 0 1-7.84-1.88 30.7 30.7 0 0 1-3.51-1.94 28.11 28.11 0 0 1-3-3.16c-.65-.81-1.29-1.63-2-2.42-1.16-1.36-2.34-2.68-3.56-4a68.73 68.73 0 0 0-8.18-7.24 58.32 58.32 0 0 0-11.17-6.65c-3.12-1.44-6.28-2.8-9.41-4.2-4.36-1.95-8.9-3.47-13.37-5.14-6.49-2.41-13.24-4.08-19.89-6-2.37-.67-4.83-1.07-7.25-1.57l-12.55-2.61c-2.58-.54-5.2-.92-7.81-1.35q-8.93-1.44-17.93-2.44A239.61 239.61 0 0 0 748 354a294.1 294.1 0 0 0-29.65 2q-16 1.83-31.91 4.93-14.42 2.85-28.54 6.88c-9.59 2.75-19 6.05-28.35 9.57a569 569 0 0 0-56.74 25.07 594.94 594.94 0 0 0-101 65c-7.49 6-14.71 12.25-21.76 18.73a271.23 271.23 0 0 0-19.88 20.1A229.58 229.58 0 0 0 411 530.86a130.51 130.51 0 0 0-14 28.19 73 73 0 0 0-3.45 16.22c-.26 2.2-.42 4.39-.46 6.6a65.76 65.76 0 0 0 .95 10.84c.77 5.37 2.76 10.24 5.05 15.15a51.27 51.27 0 0 0 9.7 13.5 53.43 53.43 0 0 0 4.62 4.15 87.09 87.09 0 0 0 7.53 5.57 89.45 89.45 0 0 0 15.27 7.44 121.58 121.58 0 0 0 27.65 7.14 278.65 278.65 0 0 0 43.75 3.11l14.44-.11c1.94 0 3.89 0 5.83-.09l25.12-1.43c6-.34 11.94-1.37 17.87-2.13 6.9-.88 13.88-1.55 20.72-2.85l26-5c5.31-1 10.55-2.36 15.81-3.59 6.76-1.59 13.58-3 20.29-4.77l22.17-5.8c4.93-1.3 9.88-2.56 14.78-4l25.77-7.67c5.19-1.55 10.3-3.36 15.43-5.09l13.54-4.56c1.72-.58 3.49-1.1 5.18-1.76l23.1-9.1c12.93-5.1 25.52-11 38.2-16.68 2.43-1.08 4.77-2.43 7.14-3.64l13.11-6.69q7.18-3.66 14.25-7.5c6.23-3.38 12.52-6.67 18.7-10.13l21-11.76c4.77-2.67 9.46-5.45 14.16-8.25l12.36-7.36c1.56-.93 3.15-1.82 4.66-2.83l20.58-13.78c6.14-4.11 12-8.75 17.78-13.31 7.49-5.88 14.65-12.16 21.56-18.72a257.68 257.68 0 0 0 39-46.52c2.46-3.81 4.73-7.75 6.89-11.74a168.16 168.16 0 0 0 7.12-15.28 110.84 110.84 0 0 0 4.55-13.06 105.27 105.27 0 0 0 3-16.73 58.49 58.49 0 0 0-.18-13.55 76 76 0 0 0-3.68-16.82 83.76 83.76 0 0 0-6.47-14.08 94.78 94.78 0 0 0-9.56-13.16 103.25 103.25 0 0 0-22.2-19.23c-8.56-5.73-18-10-27.51-13.9a172.44 172.44 0 0 0-28.4-8.59c-4.21-.92-8.46-1.58-12.7-2.3-5.65-1-11.28-1.82-17-2.57q-7.15-.93-14.37-1.34c-4.33-.23-8.74-.41-13.07-.25l-11.45.4c-2.63.1-5.27.09-7.89.31l-12.33 1c-2.89.25-5.83.37-8.71.75l-22.42 2.9c-7.23.94-14.43 2.07-21.64 3.16l5.81-2.53c11.72-5.08 23.47-10.09 35.19-15.16q10.17-4.41 20.27-8.95c5.69-2.58 11.42-5.14 17-7.93 5.93-3 11.89-5.9 17.76-9q5.29-2.82 10.61-5.62c2.9-1.55 5.73-3.27 8.59-4.9 2.4-1.38 4.86-2.69 7.21-4.17l11.16-7c2.18-1.38 4.27-2.89 6.37-4.38 3.54-2.5 7.19-4.9 10.58-7.61 5-4 10.09-7.79 14.73-12.13l8.52-8c2.66-2.49 5.1-5.24 7.64-7.85a160.77 160.77 0 0 0 13.55-16.16c2-2.68 3.94-5.32 5.75-8.11 1-1.61 2.07-3.22 3.11-4.82.8-1.23 1.44-2.58 2.15-3.86a146.29 146.29 0 0 0 9.12-19.43 69.94 69.94 0 0 0 3.33-12.55 77.32 77.32 0 0 0 1.21-16.84 70.91 70.91 0 0 0-2.51-15.25 59 59 0 0 0-2.12-6.21 70.53 70.53 0 0 0-3.82-8.34 52.08 52.08 0 0 0-4.81-6.63 30.92 30.92 0 0 0-4.31-4.25 51.6 51.6 0 0 0-13-7.91 111.92 111.92 0 0 0-26.63-8c-4.08-.63-8.15-1.15-12.27-1.42-3.69-.24-7.36-.43-11.06-.56q-2.35-.09-4.71-.09c-5.07 0-10.13.29-15.18.72z"/>
            <path d="M1209.44 361.08a52.25 52.25 0 0 0-5.42.87 37.22 37.22 0 0 0-4.41 1.18c-1.52.54-3 1.16-4.48 1.78l-1.92.76a19.81 19.81 0 0 1-3.34.95 81.78 81.78 0 0 1-10.83.48c-4-.13-8-.49-11.94-1-1-.14-1.93-.27-2.9-.37l-.77.05a9.53 9.53 0 0 0-4.8 1.3l-.39.27a9.41 9.41 0 0 0-3.18 3.06l-.24.13a59.76 59.76 0 0 1-9 2.15c-2.59.46-5.19.86-7.8 1.23l-6.29.57c-2.07.18-4.16.25-6.24.37s-4.12.18-6.17.26c-2.43.09-4.81.35-7.22.68a11.64 11.64 0 0 0-2.89 1.1 10.7 10.7 0 0 0-3.51 3.54 8.71 8.71 0 0 0-1.2 4.42v1.05a.42.42 0 0 1 0 .1 7.42 7.42 0 0 0-.18.94 26.5 26.5 0 0 1-3.24 1.84 47.4 47.4 0 0 1-9.19 2.23 33.39 33.39 0 0 1-6.32.16 23.39 23.39 0 0 1-3.94-1.06 21.53 21.53 0 0 1-3.19-1.85 16.8 16.8 0 0 1-1.28-1.25 15.81 15.81 0 0 1-.79-1.38 17 17 0 0 1-.47-1.73 10.28 10.28 0 0 1 0-1.11c.2-.94.46-1.86.75-2.77.17-.53.35-1.06.51-1.6l.27-1.9a7.41 7.41 0 0 0-.2-1.82 4.58 4.58 0 0 0-2.2-2.78l-1.3-.55a6.32 6.32 0 0 0-2.87 0c-1.22.23-2.44.45-3.66.64-4.22.43-8.42.63-12.66.73s-8.4.11-12.59.17a116.05 116.05 0 0 0-15 .89 67.49 67.49 0 0 0-8.85 2.14 46.65 46.65 0 0 0-8 3.09 20 20 0 0 0-6.23 4.84 7.08 7.08 0 0 0-1.39 2.33 8 8 0 0 0-.44 1.68c-.08.86-.1 1.72-.13 2.58.25-.84.48-1.68.77-2.5a9.48 9.48 0 0 1 .74-1.32 10.52 10.52 0 0 1 1.55-1.58 20 20 0 0 1 3.34-1.95 45.22 45.22 0 0 1 10.9-2.59 76 76 0 0 1 12.41-.91c2.06.08 4.1.17 6.15.27 3.48.19 7 .41 10.46.58s7.11.33 10.68.27c2.5 0 5-.18 7.49-.41a13.44 13.44 0 0 0-.49 2.48 14.75 14.75 0 0 0 .29 4.49 15 15 0 0 0 1.64 4.22 15.61 15.61 0 0 0 2.53 3.35 21.67 21.67 0 0 0 3.44 2.74 25.54 25.54 0 0 0 5.33 2.6 24.91 24.91 0 0 0 9.06 1.48 51.05 51.05 0 0 0 9.13-1 45.88 45.88 0 0 0 7.84-2 49.32 49.32 0 0 0 6.86-3.13 13.49 13.49 0 0 0 1.77-.26 9.41 9.41 0 0 0 3.56-2.12c3.76-.14 7.52-.32 11.28-.57 4.09-.27 8.23-.61 12.28-1.26l6.08-1c1.7-.27 3.39-.69 5.07-1s3.63-.85 5.43-1.35a45.7 45.7 0 0 0 6.22-2.25c.51-.22 1-.47 1.47-.72a148.1 148.1 0 0 0 21.06.87c1.71 0 3.43-.06 5.14-.21a25.63 25.63 0 0 0 6.88-1.49c.88-.33 1.75-.7 2.61-1.07a41.09 41.09 0 0 1 4.63-1.75c1.86-.52 3.71-1 5.6-1.35a17.87 17.87 0 0 1 2.07 0 37.43 37.43 0 0 1 5.18 1.51c.6.3 1.21.61 1.81.94a13.73 13.73 0 0 1 1.52 1c1.12.9 2.23 1.79 3.37 2.66.68.52 1.35 1 2.07 1.48a24 24 0 0 0 5.41 2.45 26.68 26.68 0 0 0 5.09.86 15.83 15.83 0 0 0 2.92 0 28.82 28.82 0 0 0 5.39-.85c4-1 7.31-3.59 10.29-6.32 2-1.82 4.14-3.46 6.23-5.15l1-.78-.1.08c.92-.67 1.84-1.34 2.78-2a2.29 2.29 0 0 0 .62 1.09 2.42 2.42 0 0 0 2.31.6h.09a2.57 2.57 0 0 0 .45-.2 8.23 8.23 0 0 0 .79-.39 39.72 39.72 0 0 1 6.56-1.41 35.39 35.39 0 0 1 5.64-.09c2 .07 4 .18 6 .37l.53.11a13.91 13.91 0 0 1 .45 1.65c.32 3.41.43 6.83 1 10.22.62 3.84 1.38 7.83 3.53 11.15a11.64 11.64 0 0 0 3.64 3.27 11.37 11.37 0 0 0 5.36 1.41c4.3.27 8.3-1.53 12.17-3.13 2.76-1.14 5.41-2.57 8.09-3.89 3.27-1.62 6.53-3.25 9.62-5.18-1.25.63-2.53 1.19-3.81 1.76-2.23.9-4.47 1.76-6.73 2.6-4.79 1.79-9.61 3.69-14.67 4.56a19.35 19.35 0 0 1-4.37 0 15 15 0 0 1-2.07-.53 9.3 9.3 0 0 1-1.34-.88 14.75 14.75 0 0 1-1.38-1.36 9.59 9.59 0 0 1-.76-1.28 20.25 20.25 0 0 1-.86-3.23 91.28 91.28 0 0 1-.41-13.53c.08-3 0-6.47-2.08-8.9-1.73-2-4.72-2.4-7.23-2.28a44.55 44.55 0 0 0-9.47 1.45l-1.82.5a4.77 4.77 0 0 0-.76-3c-1.88-3-6.29-2.31-9.19-1.67a29.61 29.61 0 0 0-4.3 1.41 65.57 65.57 0 0 0-7.85 3.74c-2 1.09-3.94 2.3-6 3.31l-.7.24c-1.45 0-2.89-.12-4.35-.13-.76 0-1.52 0-2.27.08-1 .05-1.93.1-2.9.06-.24-.05-.46-.12-.69-.19s-.48-.27-.71-.42c-.83-.75-1.6-1.57-2.37-2.39a38.17 38.17 0 0 0-4.74-4.24 31.21 31.21 0 0 0-4.14-2.69c-.6-.33-1.25-.57-1.87-.85a29.08 29.08 0 0 0-6.82-2.27 25.52 25.52 0 0 0-4.57-.44 20.64 20.64 0 0 0-2.34.13zm79.29 14.13l.06.08-.06-.08zm-17.93 1.68l-.16.07.16-.07zm-166.2 8.92v.05-.05zm.06.8v.16-.17zM1002.74 388z"/>
            <path d="M1304.93 398.69c-3.28-.5-4.57-1.94-7.44-3.6l-4.11-2.45c1.29 1.7.62 4.22 2.13 5.73 1.3 1.3 3.75 2.47 4.41 3.17 1.47 1.54 7.37.41 9.49.73 4.31.63 8.67-.76 12.77-2a60.36 60.36 0 0 0 9-3.69h.12a7.93 7.93 0 0 0 3.72-.84 12.63 12.63 0 0 0 4.87 3.37 16.38 16.38 0 0 0 3.49 1.24 18.38 18.38 0 0 0 3.79.37 25.72 25.72 0 0 0 6.38-1.11 26.78 26.78 0 0 0 5.76-2.5c.27-.15.53-.31.78-.47a27 27 0 0 0 3.69 1.51 37.84 37.84 0 0 0 6.1 1.54 65.4 65.4 0 0 0 11.8 1c22.41 19.11 47.4 34.94 73.8 48a531.74 531.74 0 0 0 47.08 20.47 432.37 432.37 0 0 0 45.57 14.24 401.52 401.52 0 0 0 51.61 9.63 131.47 131.47 0 0 0 24.13.74 114.87 114.87 0 0 0 16.54-2.3 55.64 55.64 0 0 0 9.83-3.05 46.41 46.41 0 0 0 7.08-3.38 42.39 42.39 0 0 0 6.75-5.36 43.54 43.54 0 0 0 5.39-6.77 28.68 28.68 0 0 0 3.66-8.48 53.94 53.94 0 0 0 1.27-8.59 29.47 29.47 0 0 0 .05-5.23c-.2-3.05-.73-6.08-1.18-9.1-.32-2.21-.65-4.43-1-6.64-1.38-7.62-3.34-15.15-5.14-22.69-1.25-5.28-2.94-10.48-4.45-15.7-.54-1.9-1-3.87-1.65-5.73-.92-2.54-1.85-5.09-2.77-7.64-2.78-7.67-5.31-15.46-9-22.75-2-3.84-3.62-7.82-5.19-11.83a149.66 149.66 0 0 0-7.07-14.52c-2.62-5-5.12-10.1-7.86-15q-4.53-8.16-9-16.29l-4.36-7.85c-2.59-4.67-4.84-9.55-7.11-14.38-1.14-2.42-2.24-4.87-3.3-7.33q-4.7-11.38-8.32-23.17 22.32-3.16 44.65-6.25c12-1.65 24.08-3 36-5.41a314.76 314.76 0 0 0 31.31-8.11c9.09-2.79 18-6 26.89-9.45a226 226 0 0 0 24.11-10.89c-5.13-.73-10.21-1.78-15.32-2.66-6.34-1.09-12.72-2-19.1-2.82a291.88 291.88 0 0 0-29.68-2.24 243.47 243.47 0 0 0-30.79 1c-9.25 1-18.47 2.43-27.68 3.7l-15.89 2.14q-16.49 2.26-33 4.63a271.77 271.77 0 0 1-2.12-36.74c0-6.14.23-12.27.59-18.4 1.51-4.35 3-8.69 4.29-13.12 1.43-5.06 2.84-10.1 4.13-15.19q.86-3.34 1.63-6.71c.36-1.56.71-3.12 1-4.7.47-2.4.81-4.81 1.13-7.24.41-3.16-1.21-6.2-2.45-9-1.32-3-4.89-5.25-7.9-6.08l-3.51-.47a13.19 13.19 0 0 0-6.68 1.81 16.47 16.47 0 0 0-5.62 4 25.86 25.86 0 0 0-4.07 6.22 88.72 88.72 0 0 0-4.81 13.3 199.42 199.42 0 0 0-4.76 26c-.8 6.1-1.35 12.21-1.72 18.34q-2.64 6.12-5.29 12.24-1.74 4.05-3.75 8c-5 9.62-9.7 19.37-15.12 28.74q-2.13 3.69-4.24 7.41c-10.73 1.52-21.45 3.07-32.15 4.73l-43.85 6.81c-8.17 1.27-16.29 2.73-24.44 4.2-13.25 2.4-26.54 4.61-39.71 7.36-15.51 3.25-30.87 7-46.09 11.46a113.05 113.05 0 0 0-23.57 9.74 57 57 0 0 0-7 5 18.5 18.5 0 0 0-3.14 3.05 25.15 25.15 0 0 0-5.91 10.66 42.7 42.7 0 0 0-.94 6.45 26.38 26.38 0 0 0 .67 7.16c1 4.5 3.74 8.84 6.28 12.64.9 1.36 1.78 2.73 2.66 4.1 1.33 2 2.64 4.1 4 6.13 3 4.54 6 9.09 9 13.6 4.85 7.19 9.68 14.35 14.86 21.3q7.61 10.2 16.12 19.57c-3.54.71-5.85 3.68-8.43 6a21.48 21.48 0 0 1-2.14 1.22l-.14.05-.13-.23c-1.32-2.24-2.91-4-5.55-4.69a8.15 8.15 0 0 0-5.83.76 11.32 11.32 0 0 0-2.44 1.82c-.55.47-1 1.06-1.54 1.57-.72.74-1.46 1.45-2.21 2.16a6.11 6.11 0 0 0-1.92 2.64l-.51.81-1.26 1c-1.87 1.38-3.81 2.61-5.81 3.81a66.5 66.5 0 0 1-6.06 3.39c-.79.31-2 1.35-3.1 1.91a8.9 8.9 0 0 1-2.61.57zm261.21-144.45a290.32 290.32 0 0 0 14.15 39.36c1.51 3.49 3.12 6.93 4.75 10.36 1 2.12 2 4.26 3.08 6.33 1.27 2.36 2.53 4.73 3.8 7.1l9.37 17.46c2.48 4.62 4.73 9.38 7.1 14.07 2 4 4.21 8 6 12.16q3.64 8.55 7.3 17.12 2.88 8.31 5.74 16.62c.57 1.63 1.25 3.26 1.7 4.92l2.23 8.23c1.29 4.77 2.69 9.52 3.74 14.35 1.67 7.63 3.46 15.24 4.64 23a52.39 52.39 0 0 1 .45 8.76c0 .18-.09.36-.13.54l-.51.5c-.46.28-.92.54-1.39.79a64.57 64.57 0 0 1-10.21 2.44 125.92 125.92 0 0 1-28-.57 407.74 407.74 0 0 1-50.7-10.9 427.31 427.31 0 0 1-49.13-17c-25.81-11-51-24.06-74-40.21a136.86 136.86 0 0 0 15.81-8.45 161.08 161.08 0 0 0 21-15.87c2.23-2 4.38-4 6.51-6a70.59 70.59 0 0 0 5-5.66 84.62 84.62 0 0 0 6.94-9.69c.55-.9 1-1.84 1.5-2.77a23.81 23.81 0 0 0 2.59-6.95c0-.19 0-.37.07-.54l.11-.11a111.3 111.3 0 0 0 7.79-9.15c4-5.11 8-10.32 11.61-15.72l11-16.51c2.27-3.4 4.64-6.75 6.78-10.23q5.42-8.75 10.82-17.51c1.27-2.05 2.57-4.09 3.86-6.15q14.32-2 28.64-4.08zm-202.68 35.23c7.73-2.12 15.48-4.09 23.3-5.85 8-1.78 16-3.47 24-4.91l41.47-7.46c9-1.62 18.17-2.87 27.25-4.27 8.37-1.29 16.73-2.66 25.1-3.93-1.79 2.89-3.55 5.8-5.46 8.62-7.78 11.53-15.32 23.26-23.74 34.33a89.23 89.23 0 0 1-8.92 10.21c-.67.27-1.34.58-2 .92a13.2 13.2 0 0 0-4.69 4.7 13 13 0 0 0-1.32 10.09v.09a12.39 12.39 0 0 0 .82 2.18c-.91 1.52-1.89 3-2.93 4.42a122.94 122.94 0 0 1-19.41 18.88 127.61 127.61 0 0 1-25.26 15q-2.58 1-5.19 2a254.86 254.86 0 0 1-33.76-34.67c-6.58-8.72-12.68-17.83-18.63-27-2.35-3.61-4.76-7.2-7.06-10.85l-3.86-6.09v-.07l.74-.35c6.38-2.44 13-4.13 19.6-5.93zM1346 383.92l.19.08-.19-.08z"/>
        </g>
    </g>
</svg>
